<svg xmlns="http://www.w3.org/2000/svg" width="54.678" height="51.232" viewBox="0 0 54.678 51.232">
  <g id="poignee-de-main" transform="translate(0 495.849)">
    <path id="Tracé_639" data-name="Tracé 639" d="M6.888-495.716a8.425,8.425,0,0,0-6.632,6.44A9.938,9.938,0,0,0,.3-485.154a8.581,8.581,0,0,0,2.659,4.165l.523.406-.918.929a8.322,8.322,0,0,0-2.029,3.065c-.545,1.548-.534,1.2-.534,16.467v14.257l.235.416a1.6,1.6,0,0,0,.673.63c.438.214.609.214,7.721.192,7.2-.032,7.273-.032,7.572-.256.683-.513.726-.7.758-3.428l.032-2.467.716.2a24.273,24.273,0,0,0,7.721.748A23.969,23.969,0,0,0,36.758-453.5l.929-.587.032,4.122c.032,3.909.043,4.154.246,4.5a2.5,2.5,0,0,0,.513.587c.3.224.374.224,7.572.256,7.112.021,7.283.021,7.721-.192a1.6,1.6,0,0,0,.673-.63l.235-.416v-14.257c0-15.56.021-15.015-.619-16.649a8.393,8.393,0,0,0-2.082-3.044l-.78-.737.47-.374a8.835,8.835,0,0,0,2.713-4.229,10.164,10.164,0,0,0,.053-4.09,8.889,8.889,0,0,0-2.317-4.165,7.584,7.584,0,0,0-2.969-1.922,8.525,8.525,0,0,0-6.739.384,5.91,5.91,0,0,0-1.986,1.474,7.966,7.966,0,0,0-2.2,3.481,6.582,6.582,0,0,0-.4,2.349,6.92,6.92,0,0,0,.182,2.275,7.953,7.953,0,0,0,2.467,4.165l.737.683-.587.5a8.777,8.777,0,0,0-2.606,4.3,19.271,19.271,0,0,0-.31,2.648,14.25,14.25,0,0,1-.374,2.851,14.051,14.051,0,0,1-7.283,8.874,13.684,13.684,0,0,1-12.11.16l-.908-.459-.064-6.621c-.053-6.365-.064-6.653-.288-7.465a9.11,9.11,0,0,0-2.616-4.282l-.577-.491.982-.993A5.7,5.7,0,0,0,16-483.584a7.68,7.68,0,0,0,.876-3.674,8.311,8.311,0,0,0-2.606-6.215,7.386,7.386,0,0,0-3.556-2.082A10.567,10.567,0,0,0,6.888-495.716Zm2.873,3.268a4.613,4.613,0,0,1,2.456,1.388,5.264,5.264,0,0,1-1.837,8.543,5.273,5.273,0,0,1-7.091-4.037,5.3,5.3,0,0,1,3.93-5.938A4.787,4.787,0,0,1,9.761-492.448Zm37.559-.064a5.2,5.2,0,0,1,3.834,6.813,4.512,4.512,0,0,1-1.378,2.146,5.241,5.241,0,0,1-8.554-2.264,6.444,6.444,0,0,1-.107-2.915,5.5,5.5,0,0,1,3.951-3.78A4.868,4.868,0,0,1,47.319-492.512ZM9.782-478.736a5.382,5.382,0,0,1,3.887,4.368c.053.427.1,2.862.1,5.414v4.645l-.5-.555a13.609,13.609,0,0,1-2.061-3.343,13.22,13.22,0,0,1-1.068-4.539,16.651,16.651,0,0,0-.267-2.189A5.064,5.064,0,0,0,7.23-478.18l-.726-.363.459-.16A6.577,6.577,0,0,1,9.782-478.736Zm38.093.075.288.16-.63.288a5.285,5.285,0,0,0-2.691,3.076c-.192.619-.2,1.2-.2,13.99v13.338L42.8-447.83l-1.848-.032-.032-12.762c-.011-8.031.011-13.093.085-13.648a4.847,4.847,0,0,1,1.516-3.086,6.171,6.171,0,0,1,2.414-1.42A8.222,8.222,0,0,1,47.875-478.661ZM5.841-475.3a2.054,2.054,0,0,1,.641.545c.246.32.288.513.416,2,.075.9.224,2.018.32,2.478a17.115,17.115,0,0,0,13.253,13.3,23.326,23.326,0,0,0,2.51.31c1.559.1,1.933.214,2.317.7a1.829,1.829,0,0,1-.972,2.926,16.151,16.151,0,0,1-4.613-.363,20.754,20.754,0,0,1-14.3-11.021,19.97,19.97,0,0,1-2.168-8.255c-.064-1.281-.053-1.367.192-1.826A1.845,1.845,0,0,1,5.841-475.3Zm44.714.075a1.86,1.86,0,0,1,.673.7l.246.47v26.239H47.843l.021-13.274.032-13.285.288-.374A1.826,1.826,0,0,1,50.555-475.222ZM37.7-460.9v2.7l-.769.619A21.352,21.352,0,0,1,30.35-454c-.716.235-1.356.427-1.41.427s-.075-.31-.043-.78a4.971,4.971,0,0,0-.4-2.446l-.2-.384.9-.288a17.468,17.468,0,0,0,7.7-5.211c.416-.5.758-.918.78-.918S37.7-462.4,37.7-460.9Zm-33.661.491a23.869,23.869,0,0,0,9.1,8.073l.587.31v4.165l-5.254.032-5.265.021v-6.909c0-3.791.021-6.877.043-6.856S3.62-461.03,4.037-460.41Z" transform="translate(0)" fill="#0cbd8b"/>
  </g>
</svg>
