<svg xmlns="http://www.w3.org/2000/svg" width="30.348" height="26.404" viewBox="0 0 30.348 26.404">
  <g id="briefcase" transform="translate(0 478.96)">
    <path id="Tracé_630" data-name="Tracé 630" d="M11.851-478.88a2.286,2.286,0,0,0-1.778,1.82,15.311,15.311,0,0,0-.059,1.66v1.357H6.623c-3.681,0-3.776.006-4.463.332A3.547,3.547,0,0,0,1-472.7a4.491,4.491,0,0,0-.338.658c-.16.4-.16.415-.16,1.8a7.892,7.892,0,0,0,.107,1.8,5.016,5.016,0,0,0,2.62,3.284,8.9,8.9,0,0,0,1.037.385c1.251.385,9.863,2.881,10.278,2.976a6.257,6.257,0,0,0,2.3-.024c1.28-.3,10.7-3.1,11.12-3.3a4.9,4.9,0,0,0,2.691-3.23,6.92,6.92,0,0,0,.148-1.66,4.277,4.277,0,0,0-.32-2.359,3.688,3.688,0,0,0-1.334-1.334c-.688-.326-.788-.338-4.475-.338h-3.4v-1.322c0-1.843-.089-2.229-.658-2.851a2.225,2.225,0,0,0-1.263-.682C18.845-478.992,12.29-478.975,11.851-478.88Zm7.362,1.974c.095.089.107.213.107,1.482v1.381H11.97v-1.375c0-1.191.012-1.387.1-1.482s.279-.107,3.562-.107C18.78-477.007,19.112-476.995,19.213-476.906Z" transform="translate(-0.47)" fill="#0cbd8b"/>
    <path id="Tracé_631" data-name="Tracé 631" d="M0-235.528c0,5.2,0,5.151.35,5.844a3.112,3.112,0,0,0,1.772,1.506l.4.136H15.174c12.252,0,12.667-.006,12.981-.113a3.065,3.065,0,0,0,2.1-2.241,46.547,46.547,0,0,0,.089-5.139V-240.3l-.279.267a7.048,7.048,0,0,1-2.152,1.351c-.545.213-9.608,2.863-11.013,3.219a5.164,5.164,0,0,1-1.76.19l-1.008-.006-1.037-.273c-2.051-.545-10.414-3.023-10.865-3.213a6.7,6.7,0,0,1-1.76-1.114l-.474-.4Z" transform="translate(0 -224.514)" fill="#0cbd8b"/>
  </g>
</svg>
