<svg xmlns="http://www.w3.org/2000/svg" width="22.348" height="22.348" viewBox="0 0 22.348 22.348">
  <path id="iconmonstr-gavel-1" d="M0,20.486H11.174v1.862H0Zm10.243-.931H.931a1.862,1.862,0,0,1,1.862-1.862H8.381A1.862,1.862,0,0,1,10.243,19.555ZM16.174,7.6,14.082,9.645s5.858,5.16,7.61,6.652a1.767,1.767,0,0,1,.656,1.346,1.721,1.721,0,0,1-1.816,1.694,1.784,1.784,0,0,1-1.23-.649c-1.508-1.746-6.583-7.681-6.583-7.681l-2.09,2.045L5.175,7.6l5.547-5.454L16.174,7.6ZM4.721,8.462A.965.965,0,0,0,3.357,9.826L8.49,14.957A.964.964,0,1,0,9.854,13.6L4.721,8.462ZM12.9.282a.964.964,0,0,0-1.363,1.363l5.134,5.134a.964.964,0,1,0,1.362-1.363L12.9.282Z" fill="#fff" fill-rule="evenodd"/>
</svg>
