<svg xmlns="http://www.w3.org/2000/svg" width="29.791" height="22.348" viewBox="0 0 29.791 22.348">
  <g id="enveloppe" transform="translate(0.001 448.035)">
    <path id="Tracé_636" data-name="Tracé 636" d="M8.586-447.951a2.4,2.4,0,0,0-1.059.576c-.4.372-.5.628-.355.937.035.081,1.338,1.228,2.892,2.549,3.741,3.177,8.245,7.035,9.711,8.32,1.024.9,1.228,1.047,1.5,1.129a.824.824,0,0,0,.623,0c.337-.1.326-.087,1.961-1.519,1.373-1.2,5.417-4.666,9.257-7.931,1.554-1.321,2.857-2.467,2.892-2.549.145-.308.047-.564-.355-.937a2.432,2.432,0,0,0-1.135-.594C34.054-448.068,8.988-448.05,8.586-447.951Z" transform="translate(-6.696)" fill="#fff"/>
    <path id="Tracé_637" data-name="Tracé 637" d="M.272-384.959c-.285.169-.273-.18-.273,8.332,0,5.091.023,8.047.058,8.245A2.511,2.511,0,0,0,2.03-366.4c.431.081,25.3.081,25.729,0a2.511,2.511,0,0,0,1.972-1.978c.035-.2.058-3.154.058-8.245,0-8.553.012-8.175-.285-8.338a.888.888,0,0,0-.681.023c-.192.134-7.96,6.755-9.793,8.349-.908.786-1.891,1.635-2.182,1.891a2.738,2.738,0,0,1-2.3.855c-.727-.116-.931-.25-2.508-1.635-1.815-1.594-10.467-8.984-11.02-9.414A.8.8,0,0,0,.272-384.959Z" transform="translate(0 -59.344)" fill="#fff"/>
  </g>
</svg>
