<svg xmlns="http://www.w3.org/2000/svg" width="29.076" height="29.051" viewBox="0 0 29.076 29.051">
  <g id="home" transform="translate(0)">
    <path id="Tracé_552" data-name="Tracé 552" d="M14.017-511.617c-.739.2-.534.017-7.081,6.553-3.4,3.4-6.257,6.291-6.348,6.428a2.669,2.669,0,0,0,.335,3.364,2.7,2.7,0,0,0,1.949.79h.386v4.546c0,3.075.023,4.637.063,4.842a3.271,3.271,0,0,0,2.086,2.33c.375.131.4.131,3.148.131,2.705,0,2.768,0,2.921-.119a1.552,1.552,0,0,0,.273-.273c.119-.154.119-.227.148-3.95l.028-3.8.17-.279a1.563,1.563,0,0,1,1.074-.676c.159-.023.955-.028,1.767-.017l1.478.017.3.165a1.564,1.564,0,0,1,.642.659,28.575,28.575,0,0,1,.108,3.933c.028,3.717.028,3.791.148,3.944a1.552,1.552,0,0,0,.273.273c.153.119.216.119,2.921.119,2.745,0,2.773,0,3.148-.131a3.271,3.271,0,0,0,2.086-2.33c.04-.2.063-1.767.063-4.842v-4.546h.386a2.681,2.681,0,0,0,2.694-2.262,2.748,2.748,0,0,0-.244-1.6c-.165-.341-.659-.852-6.354-6.552-3.393-3.4-6.291-6.257-6.439-6.354a3.564,3.564,0,0,0-.568-.29A3.105,3.105,0,0,0,14.017-511.617Z" transform="translate(-0.141 511.684)" fill="#0cbd8b"/>
  </g>
</svg>
