<svg xmlns="http://www.w3.org/2000/svg" width="22.348" height="22.348" viewBox="0 0 22.348 22.348">
  <path id="iconmonstr-calendar-9" d="M15.83,2.794V.931a.931.931,0,0,1,1.862,0V2.794a.931.931,0,0,1-1.862,0ZM4.656,3.725a.931.931,0,0,0,.931-.931V.931a.931.931,0,0,0-1.862,0V2.794A.931.931,0,0,0,4.656,3.725ZM16.761,15.83V13.036H15.83v3.725h2.794V15.83Zm-4.656.466a4.19,4.19,0,1,0,4.19-4.19A4.2,4.2,0,0,0,12.105,16.3Zm10.243,0A6.053,6.053,0,1,1,16.3,10.243,6.052,6.052,0,0,1,22.348,16.3ZM9.091,19.555H1.862V7.449H19.555V9.091a7.938,7.938,0,0,1,1.862,1.181V1.862H18.623v.931a1.869,1.869,0,0,1-2.475,1.764A1.913,1.913,0,0,1,14.9,2.71V1.862H6.518v.931A1.869,1.869,0,0,1,4.043,4.557,1.913,1.913,0,0,1,2.794,2.71V1.862H0V21.417H10.272A7.938,7.938,0,0,1,9.091,19.555Z" fill="#fff"/>
</svg>
