<svg xmlns="http://www.w3.org/2000/svg" width="17.606" height="25.321" viewBox="0 0 17.606 25.321">
  <g id="batiment" transform="translate(-78 512)">
    <path id="Tracé_638" data-name="Tracé 638" d="M78-499.339v12.661h5.292v-4.7h7.023v4.7h5.292V-512H78Zm5.292-8.853v1.484l-1.469-.01-1.474-.015-.015-1.474-.01-1.469h2.967Zm4.995,0v1.484H85.319v-2.967h2.967Zm4.985-.015-.015,1.474-1.469.015-1.474.01v-2.967h2.967Zm-9.98,4.317v1.484l-1.469-.01-1.474-.015-.015-1.474-.01-1.469h2.967Zm4.995,0v1.484H85.319v-2.967h2.967Zm4.985-.015-.015,1.474-1.469.015-1.474.01v-2.967h2.967Zm-9.98,4.317v1.484l-1.469-.01-1.474-.015-.015-1.474-.01-1.469h2.967Zm4.985-.015-.015,1.474H85.344l-.015-1.474-.01-1.469h2.967Zm4.995,0-.015,1.474-1.469.015-1.474.01v-2.967h2.967Zm-9.98,4.293v1.459H80.324v-2.918h2.967Zm4.995,0v1.459H85.319v-2.918h2.967Zm4.995,0v1.459H90.314v-2.918h2.967Z" transform="translate(0 0)" fill="#fff"/>
  </g>
</svg>
