<?xml version="1.0" standalone="no"?>
<!DOCTYPE svg PUBLIC "-//W3C//DTD SVG 20010904//EN"
 "http://www.w3.org/TR/2001/REC-SVG-20010904/DTD/svg10.dtd">
<svg version="1.0" xmlns="http://www.w3.org/2000/svg"
 width="64.000000pt" height="64.000000pt" viewBox="0 0 64.000000 64.000000"
 preserveAspectRatio="xMidYMid meet">

<g transform="translate(0.000000,64.000000) scale(0.100000,-0.100000)"
fill="#0CBD8B" stroke="none">
<path d="M156 585 c-86 -30 -156 -118 -156 -195 0 -20 11 -59 25 -85 24 -48
24 -51 10 -104 -8 -30 -13 -57 -11 -59 2 -2 24 7 48 19 36 20 59 23 148 24 89
0 111 3 147 22 88 48 134 141 111 230 -30 120 -192 195 -322 148z m34 -190 c0
-8 -9 -15 -20 -15 -11 0 -20 7 -20 15 0 8 9 15 20 15 11 0 20 -7 20 -15z m70
0 c0 -8 -7 -15 -15 -15 -8 0 -15 7 -15 15 0 8 7 15 15 15 8 0 15 -7 15 -15z
m80 0 c0 -8 -9 -15 -20 -15 -11 0 -20 7 -20 15 0 8 9 15 20 15 11 0 20 -7 20
-15z"/>
<path d="M513 317 c-15 -54 -78 -122 -140 -149 -44 -19 -44 -20 -26 -40 32
-36 71 -49 136 -47 47 1 72 -3 105 -20 40 -20 43 -21 38 -4 -17 57 -17 75 0
118 14 38 15 52 5 84 -11 39 -70 101 -94 101 -7 0 -18 -19 -24 -43z"/>
</g>
</svg>
