<svg xmlns="http://www.w3.org/2000/svg" width="30.442" height="22.348" viewBox="0 0 30.442 22.348">
  <g id="portable" transform="translate(0.1 444.011)">
    <path id="Tracé_635" data-name="Tracé 635" d="M3.234-443.9a1.1,1.1,0,0,0-.339.3l-.137.2v13.414l-1.432,2.859L-.1-424.267l.018,1c.018,1.105.042,1.177.464,1.462l.2.137H29.665l.2-.137c.422-.285.446-.357.464-1.462l.018-1-1.426-2.859-1.432-2.859v-13.4l-.143-.214c-.3-.446.779-.41-12.232-.41C3.864-444.011,3.43-444,3.234-443.9Zm23.958,17.569c.707,1.391,1.242,2.508,1.242,2.6v.166H20.369l-.458-1.272c-.386-1.064-.493-1.3-.666-1.468l-.208-.2H11.2l-.208.2c-.172.166-.279.4-.666,1.468l-.458,1.272H1.808v-.149a43.15,43.15,0,0,1,1.944-4l.565-1.082,10.817.012,10.823.018Zm-9.046,2.205c.1.279.184.517.184.535s-1.444.024-3.209.024-3.209-.012-3.209-.024.083-.256.184-.535l.184-.511h5.682Z" transform="translate(0)" fill="#fff"/>
  </g>
</svg>
