<svg xmlns="http://www.w3.org/2000/svg" width="26.724" height="26.711" viewBox="0 0 26.724 26.711">
  <g id="addition" transform="translate(0)">
    <path id="Tracé_549" data-name="Tracé 549" d="M5.961-511.61a7.74,7.74,0,0,0-1.667.439A5.45,5.45,0,0,0,2.3-509.817a5.917,5.917,0,0,0-1.677,2.979l-.125.5v16.148l.125.5A5.939,5.939,0,0,0,2.3-486.719a5.852,5.852,0,0,0,2.916,1.662l.507.141h16.2l.575-.152a6.007,6.007,0,0,0,2.906-1.646,6.117,6.117,0,0,0,1.777-3.632c.037-.319.047-3.062.037-8.262l-.016-7.786-.141-.507a6,6,0,0,0-1.61-2.869,6.078,6.078,0,0,0-2.947-1.709l-.528-.141-7.917-.005C9.708-511.63,6.06-511.62,5.961-511.61Zm8.513,6.794a1.389,1.389,0,0,1,.4.4l.157.256.016,2.252a17.916,17.916,0,0,0,.073,2.315,10.268,10.268,0,0,0,2.153.068c1.239,0,2.19.026,2.331.057a1.193,1.193,0,0,1,.883,1.495,1.34,1.34,0,0,1-.758.794,23.75,23.75,0,0,1-2.378.057,10.984,10.984,0,0,0-2.231.068,17.84,17.84,0,0,0-.073,2.315c-.016,2.184-.021,2.247-.131,2.451a1.2,1.2,0,0,1-1.563.554,1.324,1.324,0,0,1-.643-.763c-.037-.146-.057-.982-.057-2.373,0-2.064-.005-2.148-.1-2.2a21.742,21.742,0,0,0-2.231-.052,17.745,17.745,0,0,1-2.341-.063,1.285,1.285,0,0,1-.449-.3,1.1,1.1,0,0,1-.23-1.348,1.293,1.293,0,0,1,.314-.408c.35-.267.491-.282,2.791-.282a10.544,10.544,0,0,0,2.184-.068,17.842,17.842,0,0,0,.073-2.315l.016-2.242.146-.246A1.177,1.177,0,0,1,14.474-504.816Z" transform="translate(-0.5 511.627)" fill="#0cbd8b"/>
  </g>
</svg>
