<svg xmlns="http://www.w3.org/2000/svg" width="18.623" height="22.348" viewBox="0 0 18.623 22.348">
  <path id="iconmonstr-script-3" d="M5.245,3.321,11.287.268a3.071,3.071,0,0,1,4.312,3.1L8.26,7.554A4.059,4.059,0,0,0,5.245,3.321ZM20.623,13.482a3.159,3.159,0,0,1-1.4,2.632c-.153.1.782-.471-7.447,4.716a3.636,3.636,0,0,0-.988-2.523C9.466,16.8,2.863,9.136,2.846,9.114A3.378,3.378,0,0,1,2,7.042,2.143,2.143,0,0,1,5.98,5.991a2.649,2.649,0,0,1-.588,3.537L6.4,10.789l8.245-4.72c1.13,1.376,4.5,4.571,5.365,5.629A2.805,2.805,0,0,1,20.623,13.482ZM8.878,13.25l6.409-3.782-.669-.686-6.36,3.754Zm7.948-2.2-.668-.687L9.686,14.184l.619.715,6.521-3.847Zm1.527,1.573-.667-.686L11.1,15.823l.619.716,6.631-3.914Zm-10.971,4.6c-2,1.015-2.216,3.028-1.138,4.281a2.368,2.368,0,0,0,1.809.84c1.374,0,2.627-1.245,1.459-2.679C8.3,18.18,7.382,17.227,7.382,17.227Z" transform="translate(-2)" fill="#fff"/>
</svg>
