<svg xmlns="http://www.w3.org/2000/svg" width="30.02" height="28.437" viewBox="0 0 30.02 28.437">
  <g id="setting" transform="translate(0)">
    <path id="Tracé_553" data-name="Tracé 553" d="M25.974-482.75a14.744,14.744,0,0,0-4.165,2.4,1.958,1.958,0,0,0-.376,2.211,4.334,4.334,0,0,1,.05,2.411,3.948,3.948,0,0,1-3.213,2.718,1.989,1.989,0,0,0-1.622,1.059,11.023,11.023,0,0,0-.42,3.833c.075,1.791.244,2.418.777,2.888a2.4,2.4,0,0,0,1.359.526,3.411,3.411,0,0,1,2.036,1.09,3.566,3.566,0,0,1,1.146,2.794,2.937,2.937,0,0,1-.244,1.315c-.532,1.528-.251,2.086,1.729,3.4a18.362,18.362,0,0,0,2.743,1.422,1.914,1.914,0,0,0,1.76.025,1.938,1.938,0,0,0,.62-.482,4.058,4.058,0,0,1,2.061-1.553,3.891,3.891,0,0,1,4.291,1.278,1.9,1.9,0,0,0,2.13.739,15.611,15.611,0,0,0,2.819-1.472,4.891,4.891,0,0,0,1.8-1.635,1.724,1.724,0,0,0,.006-1.5,4.623,4.623,0,0,1-.163-2.33,3.872,3.872,0,0,1,2.888-2.906c1.034-.251,1.077-.269,1.434-.6a1.576,1.576,0,0,0,.47-.651,12.766,12.766,0,0,0-.019-6.019,2.051,2.051,0,0,0-.8-.877,3.7,3.7,0,0,0-.626-.188,3.987,3.987,0,0,1-3.22-2.969,4.567,4.567,0,0,1,.094-2.161,2.21,2.21,0,0,0,.013-1.566c-.182-.388-.338-.564-1.033-1.1a12.065,12.065,0,0,0-4.4-2.23c-.658-.056-.927.075-1.748.852a4.426,4.426,0,0,1-1.178.9,3.848,3.848,0,0,1-3.47,0,4.336,4.336,0,0,1-1.184-.9,3.186,3.186,0,0,0-1-.77A2,2,0,0,0,25.974-482.75Zm6.452,9.208a4.989,4.989,0,0,1,3.007,2.148,5,5,0,0,1-1.484,6.909,4.526,4.526,0,0,1-2.712.783,4.739,4.739,0,0,1-3.533-1.447,4.739,4.739,0,0,1-1.447-3.533,4.526,4.526,0,0,1,.783-2.712,5.046,5.046,0,0,1,3.288-2.211A6.183,6.183,0,0,1,32.425-473.543Z" transform="translate(-16.216 482.894)" fill="#0cbd8b"/>
  </g>
</svg>
